# xmcd
#
# Track frame offsets:
#	150
#	12232
#	24497
#	35222
#	46080
#	56662
#	67520
#	78557
#	89842
#	101752
#	117742
#	134170
#
# Disc length: 1928
#
# Revision: 1
# Processed by: cddbd v1.5.1PL0 Copyright (c) Steve Scherf et al.
# Submitted via: audiograbber 1.81.03
# Normalized: r0:DSETVAR1
#
DISCID=a907860c
DTITLE=Various Artist - Best of LOVE Music 50's
DYEAR=1997
DGENRE=Ballad
TTITLE0=THE PLATTERS - Smoke Gets In Your Eyes
TTITLE1=DINAH WASHINGTON - Unforgettable
TTITLE2=FATS DOMINO - Blueberry Hill
TTITLE3=SARRAH VAUGHAN - Broken Hearted Melody
TTITLE4=MARTY WHITE - Teenager In Love
TTITLE5=CONWAY TWITTY - Mona Lisa
TTITLE6=THE DIAMONDS - Why Do Fools Fall In Love
TTITLE7=CONNIE FRANCIS - My Happiness
TTITLE8=TOMMY EDWARDS - It's All In The Game
TTITLE9=ELLA FITZGERALD - Ev'ry Time We Say Goodbue
TTITLE10=BILLIE HOLIDAY - Stormy Weather
TTITLE11=CONNIE FRANCIS - Who's Sorry Now?
EXTD=
EXTT0=Kern
EXTT1=
EXTT2=A. Lewis/V. Rose/L. Stock
EXTT3=David/Edwards
EXTT4=Pomus/Shuman
EXTT5=Livingston/Ewans
EXTT6=Lymon/Goldner
EXTT7=Bergantine/Peterson
EXTT8=Dawes/Sigman
EXTT9=Cole Porter
EXTT10=T. Koehler/H. Arien
EXTT11=T. Snyder/B. Kalmar/H. Ruby
PLAYORDER=
